<?xml version="1.0" encoding="UTF-8"?>
<svg version="1.1" xmlns="http://www.w3.org/2000/svg" width="32" height="32">
<path d="M0 0 C10.56 0 21.12 0 32 0 C32 10.56 32 21.12 32 32 C21.44 32 10.88 32 0 32 C0 21.44 0 10.88 0 0 Z " fill="#1E1D1C" transform="translate(0,0)"/>
<path d="M0 0 C1.4370809 -0.05422947 2.87475462 -0.09289723 4.3125 -0.125 C5.11300781 -0.14820313 5.91351563 -0.17140625 6.73828125 -0.1953125 C9 0 9 0 12 2 C11.67 3.65 11.34 5.3 11 7 C10.01 7 9.02 7 8 7 C9.98 9.97 9.98 9.97 12 13 C9.75 13.25 9.75 13.25 7 13 C4.6875 11 4.6875 11 3 9 C3.33 8.01 3.66 7.02 4 6 C5.32 6 6.64 6 8 6 C8 5.01 8 4.02 8 3 C5.36 3 2.72 3 0 3 C0 2.01 0 1.02 0 0 Z " fill="#B3B2AF" transform="translate(9,10)"/>
<path d="M0 0 C1.75 0.125 1.75 0.125 4 1 C6.25 4.0625 6.25 4.0625 8 7 C5.75 7.25 5.75 7.25 3 7 C0.6875 5 0.6875 5 -1 3 C-0.67 2.01 -0.34 1.02 0 0 Z " fill="#A09F9A" transform="translate(13,16)"/>
<path d="M0 0 C0.66 0.33 1.32 0.66 2 1 C1.67 2.65 1.34 4.3 1 6 C-0.32 5.67 -1.64 5.34 -3 5 C-2.67 4.01 -2.34 3.02 -2 2 C-1.34 2 -0.68 2 0 2 C0 1.34 0 0.68 0 0 Z " fill="#BBBAB6" transform="translate(19,11)"/>
</svg>
